solid OpenSCAD_Model
  facet normal -0.42195 0.221832 0.879062
    outer loop
      vertex -40.4503 -29.3889 9.99939
      vertex -40.451 -29.389 9.9991
      vertex -40.4517 -29.3899 9.999
    endloop
  endfacet
  facet normal -0.42195 0.221832 0.879062
    outer loop
      vertex -40.4517 -29.3899 9.999
      vertex -40.451 -29.389 9.9991
      vertex -35.8575 -20.6513 9.999
    endloop
  endfacet
  facet normal 0.0805852 -0.469848 0.879062
    outer loop
      vertex -40.4503 -29.3889 9.99939
      vertex -40.4517 -29.3899 9.999
      vertex -7.72623 -23.777 9.999
    endloop
  endfacet
  facet normal 0.0805852 -0.469848 0.879062
    outer loop
      vertex -7.726 -23.776 9.99951
      vertex -40.4503 -29.3889 9.99939
      vertex -7.72593 -23.7761 9.99947
    endloop
  endfacet
  facet normal 0.0805852 -0.469848 0.879062
    outer loop
      vertex -7.72593 -23.7761 9.99947
      vertex -40.4503 -29.3889 9.99939
      vertex -7.72623 -23.777 9.999
    endloop
  endfacet
  facet normal 0 0 -1
    outer loop
      vertex -40.4517 -29.3899 9.999
      vertex -40.451 -29.389 9.999
      vertex -7.72623 -23.777 9.999
    endloop
  endfacet
  facet normal 0 0 -1
    outer loop
      vertex -40.4517 -29.3899 9.999
      vertex -35.8575 -20.6513 9.999
      vertex -40.451 -29.389 9.999
    endloop
  endfacet
  facet normal 0 0 -1
    outer loop
      vertex -7.72623 -23.777 9.999
      vertex -7.726 -23.776 9.999
      vertex -7.72593 -23.7761 9.999
    endloop
  endfacet
  facet normal 0 0 -1
    outer loop
      vertex -7.726 -23.776 9.999
      vertex -7.72623 -23.777 9.999
      vertex -40.451 -29.389 9.999
    endloop
  endfacet
  facet normal 0.169052 -0.985607 0
    outer loop
      vertex -40.451 -29.389 10
      vertex -40.451 -29.389 9.9991
      vertex -40.4503 -29.3889 9.99939
    endloop
  endfacet
  facet normal 0.169052 -0.985607 -4.43294e-12
    outer loop
      vertex -7.726 -23.776 9.99951
      vertex -40.451 -29.389 10
      vertex -40.4503 -29.3889 9.99939
    endloop
  endfacet
  facet normal 0.169052 -0.985607 0
    outer loop
      vertex -7.726 -23.776 9.99951
      vertex -7.726 -23.776 10
      vertex -40.451 -29.389 10
    endloop
  endfacet
  facet normal -0.88514 0.465324 0
    outer loop
      vertex -40.451 -29.389 0
      vertex -40.451 -29.389 9.999
      vertex -25.001 0 0
    endloop
  endfacet
  facet normal -0.88514 0.465324 0
    outer loop
      vertex -25.001 0 0
      vertex -40.451 -29.389 9.999
      vertex -35.8575 -20.6513 9.999
    endloop
  endfacet
  facet normal -0.88514 0.465324 0
    outer loop
      vertex -35.8575 -20.6513 9.999
      vertex -40.451 -29.389 9.9991
      vertex -40.451 -29.389 10
    endloop
  endfacet
  facet normal -0.88514 0.465324 -7.13023e-13
    outer loop
      vertex -35.8575 -20.6513 9.999
      vertex -40.451 -29.389 10
      vertex -25.001 0 10
    endloop
  endfacet
  facet normal -0.88514 0.465324 0
    outer loop
      vertex -35.8575 -20.6513 9.999
      vertex -25.001 0 10
      vertex -25.001 0 0
    endloop
  endfacet
  facet normal -0.716084 -0.698014 -0
    outer loop
      vertex -7.726 -23.776 0
      vertex 15.451 -47.553 0
      vertex -7.726 -23.776 9.999
    endloop
  endfacet
  facet normal -0.716084 -0.698014 0
    outer loop
      vertex -7.725 -23.777 9.999
      vertex 15.451 -47.553 0
      vertex 15.451 -47.553 9.999
    endloop
  endfacet
  facet normal -0.716084 -0.698014 3.68947e-11
    outer loop
      vertex -7.726 -23.776 9.999
      vertex 15.451 -47.553 0
      vertex -7.72593 -23.7761 9.999
    endloop
  endfacet
  facet normal -0.716084 -0.698014 0
    outer loop
      vertex 15.4509 -47.5529 9.99923
      vertex 15.451 -47.553 9.99915
      vertex 15.451 -47.553 10
    endloop
  endfacet
  facet normal -0.716084 -0.698014 -7.82912e-13
    outer loop
      vertex 15.4509 -47.5529 9.99923
      vertex 15.451 -47.553 10
      vertex -7.725 -23.777 9.99917
    endloop
  endfacet
  facet normal -0.716084 -0.698014 -2.05608e-12
    outer loop
      vertex -7.725 -23.777 9.99917
      vertex 15.451 -47.553 10
      vertex -7.726 -23.776 10
    endloop
  endfacet
  facet normal -0.716084 -0.698014 0
    outer loop
      vertex -7.725 -23.777 9.99917
      vertex -7.726 -23.776 10
      vertex -7.726 -23.776 9.99951
    endloop
  endfacet
  facet normal -0.716084 -0.698014 -4.7666e-11
    outer loop
      vertex -7.725 -23.777 9.99917
      vertex -7.726 -23.776 9.99951
      vertex -7.72593 -23.7761 9.99947
    endloop
  endfacet
  facet normal -0.716084 -0.698014 -0
    outer loop
      vertex -7.725 -23.777 9.999
      vertex -7.725 -23.777 9.99917
      vertex -7.72593 -23.7761 9.999
    endloop
  endfacet
  facet normal -0.716084 -0.698014 1.53744e-12
    outer loop
      vertex -7.725 -23.777 9.999
      vertex -7.72593 -23.7761 9.999
      vertex 15.451 -47.553 0
    endloop
  endfacet
  facet normal -0.716084 -0.698014 -0
    outer loop
      vertex -7.72593 -23.7761 9.999
      vertex -7.725 -23.777 9.99917
      vertex -7.72593 -23.7761 9.99947
    endloop
  endfacet
  facet normal 0.951057 -0.309017 0
    outer loop
      vertex -7.72593 -23.7761 9.99947
      vertex -7.72623 -23.777 9.999
      vertex -7.72593 -23.7761 9.999
    endloop
  endfacet
  facet normal 0.169052 -0.985607 0
    outer loop
      vertex -40.451 -29.389 9.999
      vertex -40.451 -29.389 0
      vertex -7.726 -23.776 0
    endloop
  endfacet
  facet normal 0.169052 -0.985607 0
    outer loop
      vertex -7.726 -23.776 9.999
      vertex -40.451 -29.389 9.999
      vertex -7.726 -23.776 0
    endloop
  endfacet
  facet normal 0 -0 1
    outer loop
      vertex -40.4483 -29.3874 10
      vertex -40.451 -29.389 10
      vertex -7.726 -23.776 10
    endloop
  endfacet
  facet normal 0 0 1
    outer loop
      vertex 0.001 -2.44921e-19 10
      vertex -0.000809017 0.000587785 10
      vertex -24.9987 0.000588117 10
    endloop
  endfacet
  facet normal 0 -0 1
    outer loop
      vertex 20.224 -14.6944 10
      vertex 15.4499 -47.5498 10
      vertex 20.226 -14.695 10
    endloop
  endfacet
  facet normal 0 0 1
    outer loop
      vertex 0.001 -2.44921e-19 10
      vertex 20.2247 14.6934 10
      vertex 0.000309017 0.000951057 10
    endloop
  endfacet
  facet normal -0 -0 1
    outer loop
      vertex -40.4483 29.3874 10
      vertex -40.451 29.389 10
      vertex -25.001 0 10
    endloop
  endfacet
  facet normal 0 0 1
    outer loop
      vertex -25.001 0 10
      vertex -40.451 -29.389 10
      vertex -40.4483 -29.3874 10
    endloop
  endfacet
  facet normal 0 0 1
    outer loop
      vertex 0.000309017 -0.000951057 10
      vertex 0.001 -2.44921e-19 10
      vertex -0.000809017 -0.000587785 10
    endloop
  endfacet
  facet normal -0 0 1
    outer loop
      vertex -0.000809017 -0.000587785 10
      vertex 0.001 -2.44921e-19 10
      vertex -24.9987 -0.000588117 10
    endloop
  endfacet
  facet normal 0 0 1
    outer loop
      vertex 15.451 -47.553 10
      vertex -7.72559 -23.775 10
      vertex -7.726 -23.776 10
    endloop
  endfacet
  facet normal 0 0 1
    outer loop
      vertex 0.000309017 0.000951057 10
      vertex -7.72447 23.7754 10
      vertex -7.72559 23.775 10
    endloop
  endfacet
  facet normal 0 0 1
    outer loop
      vertex -7.726 23.776 10
      vertex -40.451 29.389 10
      vertex -40.4483 29.3874 10
    endloop
  endfacet
  facet normal 0 0 1
    outer loop
      vertex 15.4499 47.5498 10
      vertex 20.224 14.6944 10
      vertex 20.226 14.695 10
    endloop
  endfacet
  facet normal 0 0 1
    outer loop
      vertex 15.451 47.553 10
      vertex -7.726 23.776 10
      vertex -7.72559 23.775 10
    endloop
  endfacet
  facet normal 0 0 1
    outer loop
      vertex 0.001 -2.44921e-19 10
      vertex -24.9987 0.000588117 10
      vertex -25.001 0 10
    endloop
  endfacet
  facet normal 0 0 1
    outer loop
      vertex 15.451 -47.553 10
      vertex -7.72447 -23.7754 10
      vertex -7.72559 -23.775 10
    endloop
  endfacet
  facet normal -0 -0 1
    outer loop
      vertex 15.4499 -47.5498 10
      vertex -7.72447 -23.7754 10
      vertex 15.451 -47.553 10
    endloop
  endfacet
  facet normal 0 -0 1
    outer loop
      vertex 49.9968 -1.22453e-14 10
      vertex 20.2247 -14.6934 10
      vertex 50 0 10
    endloop
  endfacet
  facet normal 0 0 1
    outer loop
      vertex -7.72447 -23.7754 10
      vertex 0.000309017 -0.000951057 10
      vertex -0.000809017 -0.000587785 10
    endloop
  endfacet
  facet normal 0 -0 1
    outer loop
      vertex 20.224 14.6944 10
      vertex 0.000309017 0.000951057 10
      vertex 20.226 14.695 10
    endloop
  endfacet
  facet normal -0 0 1
    outer loop
      vertex 0.000309017 0.000951057 10
      vertex -7.72559 23.775 10
      vertex -0.000809017 0.000587785 10
    endloop
  endfacet
  facet normal 0 0 1
    outer loop
      vertex 15.451 -47.553 10
      vertex 20.226 -14.695 10
      vertex 15.4499 -47.5498 10
    endloop
  endfacet
  facet normal 0 0 1
    outer loop
      vertex 20.2247 14.6934 10
      vertex 49.9968 -1.22453e-14 10
      vertex 50 0 10
    endloop
  endfacet
  facet normal -0 0 1
    outer loop
      vertex 20.2247 14.6934 10
      vertex 20.226 14.695 10
      vertex 0.000309017 0.000951057 10
    endloop
  endfacet
  facet normal 0 0 1
    outer loop
      vertex 0.001 -2.44921e-19 10
      vertex 0.000309017 0.000951057 10
      vertex -0.000809017 0.000587785 10
    endloop
  endfacet
  facet normal 0 0 1
    outer loop
      vertex 15.451 47.553 10
      vertex -7.72559 23.775 10
      vertex -7.72447 23.7754 10
    endloop
  endfacet
  facet normal 0 0 1
    outer loop
      vertex 20.226 14.695 10
      vertex 15.451 47.553 10
      vertex 15.4499 47.5498 10
    endloop
  endfacet
  facet normal 0 0 1
    outer loop
      vertex 0.000309017 -0.000951057 10
      vertex 20.224 -14.6944 10
      vertex 20.226 -14.695 10
    endloop
  endfacet
  facet normal 0 0 1
    outer loop
      vertex 20.226 -14.695 10
      vertex 20.2247 -14.6934 10
      vertex 0.000309017 -0.000951057 10
    endloop
  endfacet
  facet normal 0 0 1
    outer loop
      vertex 20.226 -14.695 10
      vertex 50 0 10
      vertex 20.2247 -14.6934 10
    endloop
  endfacet
  facet normal 0 0 1
    outer loop
      vertex -24.9987 -0.000588117 10
      vertex 0.001 -2.44921e-19 10
      vertex -25.001 0 10
    endloop
  endfacet
  facet normal 0 0 1
    outer loop
      vertex 50 0 10
      vertex 20.226 14.695 10
      vertex 20.2247 14.6934 10
    endloop
  endfacet
  facet normal 0 0 1
    outer loop
      vertex 20.2247 -14.6934 10
      vertex 0.001 -2.44921e-19 10
      vertex 0.000309017 -0.000951057 10
    endloop
  endfacet
  facet normal 0 0 1
    outer loop
      vertex -0.000809017 -0.000587785 10
      vertex -7.72559 -23.775 10
      vertex -7.72447 -23.7754 10
    endloop
  endfacet
  facet normal 0 0 1
    outer loop
      vertex -7.72559 -23.775 10
      vertex -40.4483 -29.3874 10
      vertex -7.726 -23.776 10
    endloop
  endfacet
  facet normal 0 0 1
    outer loop
      vertex -7.72447 23.7754 10
      vertex 15.4499 47.5498 10
      vertex 15.451 47.553 10
    endloop
  endfacet
  facet normal 0 0 1
    outer loop
      vertex -40.4483 29.3874 10
      vertex -7.72559 23.775 10
      vertex -7.726 23.776 10
    endloop
  endfacet
  facet normal 0 0 1
    outer loop
      vertex -40.4483 -29.3874 10
      vertex -24.9987 -0.000588117 10
      vertex -25.001 0 10
    endloop
  endfacet
  facet normal -0 0 1
    outer loop
      vertex -24.9987 0.000588117 10
      vertex -40.4483 29.3874 10
      vertex -25.001 0 10
    endloop
  endfacet
  facet normal -0.88514 -0.465324 -0
    outer loop
      vertex -40.451 29.389 0
      vertex -25.001 0 0
      vertex -40.451 29.389 9.999
    endloop
  endfacet
  facet normal -0.88514 -0.465324 0
    outer loop
      vertex -35.8575 20.6513 9.999
      vertex -25.001 0 0
      vertex -25.001 0 10
    endloop
  endfacet
  facet normal -0.88514 -0.465324 -0
    outer loop
      vertex -40.451 29.389 9.9991
      vertex -25.001 0 10
      vertex -40.451 29.389 10
    endloop
  endfacet
  facet normal -0.88514 -0.465324 1.45724e-15
    outer loop
      vertex -40.451 29.389 9.999
      vertex -25.001 0 0
      vertex -35.8575 20.6513 9.999
    endloop
  endfacet
  facet normal -0.88514 -0.465324 -1.25703e-11
    outer loop
      vertex -35.8575 20.6513 9.999
      vertex -25.001 0 10
      vertex -40.451 29.389 9.9991
    endloop
  endfacet
  facet normal 0 0 -1
    outer loop
      vertex -40.451 -29.389 0
      vertex -25.001 0 0
      vertex -7.726 -23.776 0
    endloop
  endfacet
  facet normal 0 0 -1
    outer loop
      vertex -7.726 -23.776 0
      vertex -25.001 0 0
      vertex -40.451 29.389 0
    endloop
  endfacet
  facet normal 0 0 -1
    outer loop
      vertex -7.726 -23.776 0
      vertex -40.451 29.389 0
      vertex -7.726 23.776 0
    endloop
  endfacet
  facet normal 0 -0 -1
    outer loop
      vertex -7.726 -23.776 0
      vertex -7.726 23.776 0
      vertex 15.451 47.553 0
    endloop
  endfacet
  facet normal 0 0 -1
    outer loop
      vertex -7.726 -23.776 0
      vertex 15.451 47.553 0
      vertex 20.226 14.695 0
    endloop
  endfacet
  facet normal 0 0 -1
    outer loop
      vertex -7.726 -23.776 0
      vertex 20.226 14.695 0
      vertex 50 0 0
    endloop
  endfacet
  facet normal 0 0 -1
    outer loop
      vertex -7.726 -23.776 0
      vertex 50 0 0
      vertex 20.226 -14.695 0
    endloop
  endfacet
  facet normal -0 0 -1
    outer loop
      vertex -7.726 -23.776 0
      vertex 20.226 -14.695 0
      vertex 15.451 -47.553 0
    endloop
  endfacet
  facet normal 0.989605 -0.143812 0
    outer loop
      vertex 15.451 -47.553 9.999
      vertex 15.451 -47.553 0
      vertex 20.226 -14.695 0
    endloop
  endfacet
  facet normal 0.989605 -0.143812 6.48963e-16
    outer loop
      vertex 18.312 -27.8658 9.999
      vertex 15.451 -47.553 9.999
      vertex 20.226 -14.695 0
    endloop
  endfacet
  facet normal 0.989605 -0.143812 0
    outer loop
      vertex 15.451 -47.553 10
      vertex 15.451 -47.553 9.99915
      vertex 20.226 -14.695 10
    endloop
  endfacet
  facet normal 0.989605 -0.143812 0
    outer loop
      vertex 20.226 -14.695 10
      vertex 18.312 -27.8658 9.999
      vertex 20.226 -14.695 0
    endloop
  endfacet
  facet normal 0.989605 -0.143812 -6.17606e-12
    outer loop
      vertex 15.451 -47.553 9.99915
      vertex 18.312 -27.8658 9.999
      vertex 20.226 -14.695 10
    endloop
  endfacet
  facet normal 0.471754 -0.0685499 0.879062
    outer loop
      vertex 15.451 -47.553 9.99915
      vertex 15.4509 -47.5529 9.99923
      vertex 15.4512 -47.5538 9.999
    endloop
  endfacet
  facet normal 0.471754 -0.0685499 0.879062
    outer loop
      vertex 18.312 -27.8658 9.999
      vertex 15.451 -47.553 9.99915
      vertex 15.4512 -47.5538 9.999
    endloop
  endfacet
  facet normal -0.341364 -0.332748 0.879062
    outer loop
      vertex 15.4512 -47.5538 9.999
      vertex 15.4509 -47.5529 9.99923
      vertex -7.725 -23.777 9.99917
    endloop
  endfacet
  facet normal -0.341364 -0.332748 0.879062
    outer loop
      vertex -7.72512 -23.7774 9.999
      vertex 15.4512 -47.5538 9.999
      vertex -7.725 -23.777 9.99917
    endloop
  endfacet
  facet normal -0.951057 0.309017 0
    outer loop
      vertex -7.725 -23.777 9.99917
      vertex -7.725 -23.777 9.999
      vertex -7.72512 -23.7774 9.999
    endloop
  endfacet
  facet normal -0 0 -1
    outer loop
      vertex -7.72512 -23.7774 9.999
      vertex -7.725 -23.777 9.999
      vertex 15.4512 -47.5538 9.999
    endloop
  endfacet
  facet normal 0 0 -1
    outer loop
      vertex 15.4512 -47.5538 9.999
      vertex -7.725 -23.777 9.999
      vertex 15.451 -47.553 9.999
    endloop
  endfacet
  facet normal 0 -0 -1
    outer loop
      vertex 15.4512 -47.5538 9.999
      vertex 15.451 -47.553 9.999
      vertex 18.312 -27.8658 9.999
    endloop
  endfacet
  facet normal 0.169052 0.985607 0
    outer loop
      vertex -40.451 29.389 9.9991
      vertex -40.451 29.389 10
      vertex -40.4503 29.3889 9.99939
    endloop
  endfacet
  facet normal 0.169052 0.985607 -3.82891e-12
    outer loop
      vertex -40.4503 29.3889 9.99939
      vertex -40.451 29.389 10
      vertex -7.726 23.776 10
    endloop
  endfacet
  facet normal 0.169052 0.985607 0
    outer loop
      vertex -40.4503 29.3889 9.99939
      vertex -7.726 23.776 10
      vertex -7.726 23.776 9.99951
    endloop
  endfacet
  facet normal -0.716084 0.698014 0
    outer loop
      vertex -7.726 23.776 0
      vertex -7.726 23.776 9.999
      vertex 15.451 47.553 0
    endloop
  endfacet
  facet normal -0.716084 0.698014 6.42555e-11
    outer loop
      vertex 15.451 47.553 0
      vertex -7.726 23.776 9.999
      vertex -7.72593 23.7761 9.999
    endloop
  endfacet
  facet normal -0.716084 0.698014 0
    outer loop
      vertex -7.725 23.777 9.999
      vertex -7.72593 23.7761 9.999
      vertex -7.72593 23.7761 9.99947
    endloop
  endfacet
  facet normal -0.716084 0.698014 0
    outer loop
      vertex -7.725 23.777 9.99917
      vertex -7.726 23.776 9.99951
      vertex -7.726 23.776 10
    endloop
  endfacet
  facet normal -0.716084 0.698014 -4.59912e-12
    outer loop
      vertex 15.4509 47.5529 9.99923
      vertex -7.726 23.776 10
      vertex 15.451 47.553 10
    endloop
  endfacet
  facet normal -0.716084 0.698014 0
    outer loop
      vertex 15.451 47.553 9.99915
      vertex 15.4509 47.5529 9.99923
      vertex 15.451 47.553 10
    endloop
  endfacet
  facet normal -0.716084 0.698014 -1.33332e-10
    outer loop
      vertex -7.725 23.777 9.999
      vertex -7.72593 23.7761 9.99947
      vertex -7.726 23.776 9.99951
    endloop
  endfacet
  facet normal -0.716084 0.698014 0
    outer loop
      vertex 15.451 47.553 0
      vertex -7.72593 23.7761 9.999
      vertex -7.725 23.777 9.999
    endloop
  endfacet
  facet normal -0.716084 0.698014 0
    outer loop
      vertex 15.451 47.553 9.999
      vertex 15.451 47.553 0
      vertex -7.725 23.777 9.999
    endloop
  endfacet
  facet normal -0.716084 0.698014 0
    outer loop
      vertex -7.725 23.777 9.999
      vertex -7.726 23.776 9.99951
      vertex -7.725 23.777 9.99917
    endloop
  endfacet
  facet normal -0.716084 0.698014 -1.44204e-12
    outer loop
      vertex -7.725 23.777 9.99917
      vertex -7.726 23.776 10
      vertex 15.4509 47.5529 9.99923
    endloop
  endfacet
  facet normal 0.989605 0.143812 0
    outer loop
      vertex 20.226 14.695 0
      vertex 15.451 47.553 0
      vertex 15.451 47.553 9.999
    endloop
  endfacet
  facet normal 0.989605 0.143812 -0
    outer loop
      vertex 20.226 14.695 10
      vertex 20.226 14.695 0
      vertex 18.312 27.8658 9.999
    endloop
  endfacet
  facet normal 0.989605 0.143812 1.62241e-16
    outer loop
      vertex 18.312 27.8658 9.999
      vertex 20.226 14.695 0
      vertex 15.451 47.553 9.999
    endloop
  endfacet
  facet normal 0.989605 0.143812 -0
    outer loop
      vertex 15.451 47.553 10
      vertex 18.312 27.8658 9.999
      vertex 15.451 47.553 9.99915
    endloop
  endfacet
  facet normal 0.989605 0.143812 -6.76884e-13
    outer loop
      vertex 20.226 14.695 10
      vertex 18.312 27.8658 9.999
      vertex 15.451 47.553 10
    endloop
  endfacet
  facet normal 0.442582 0.896728 0
    outer loop
      vertex 20.226 14.695 0
      vertex 20.226 14.695 10
      vertex 50 0 0
    endloop
  endfacet
  facet normal 0.442582 0.896728 0
    outer loop
      vertex 50 0 9.99924
      vertex 20.226 14.695 10
      vertex 50 0 10
    endloop
  endfacet
  facet normal 0.442582 0.896728 -2.07999e-12
    outer loop
      vertex 27.4896 11.1101 9.999
      vertex 20.226 14.695 10
      vertex 50 0 9.99924
    endloop
  endfacet
  facet normal 0.442582 0.896728 6.07776e-16
    outer loop
      vertex 50 0 0
      vertex 20.226 14.695 10
      vertex 27.4896 11.1101 9.999
    endloop
  endfacet
  facet normal 0.442582 0.896728 0
    outer loop
      vertex 50 0 0
      vertex 27.4896 11.1101 9.999
      vertex 50 0 9.999
    endloop
  endfacet
  facet normal 0.442582 -0.896728 0
    outer loop
      vertex 20.226 -14.695 10
      vertex 20.226 -14.695 0
      vertex 50 0 0
    endloop
  endfacet
  facet normal 0.442582 -0.896728 6.94811e-16
    outer loop
      vertex 27.4896 -11.1101 9.999
      vertex 20.226 -14.695 10
      vertex 50 0 0
    endloop
  endfacet
  facet normal 0.442582 -0.896728 0
    outer loop
      vertex 50 0 9.999
      vertex 27.4896 -11.1101 9.999
      vertex 50 0 0
    endloop
  endfacet
  facet normal 0.442582 -0.896728 -2.10202e-12
    outer loop
      vertex 50 0 10
      vertex 20.226 -14.695 10
      vertex 50 -1.22461e-14 9.99924
    endloop
  endfacet
  facet normal 1.61132e-11 -3.7397e-11 0
    outer loop
      vertex 50 0 10
      vertex 50 -1.22461e-14 9.99924
      vertex 50 0 9.99924
    endloop
  endfacet
  facet normal 0.442582 -0.896728 -1.55999e-12
    outer loop
      vertex 27.4896 -11.1101 9.999
      vertex 50 -1.22461e-14 9.99924
      vertex 20.226 -14.695 10
    endloop
  endfacet
  facet normal 0.0805852 -0.469848 0.879062
    outer loop
      vertex -0.000809017 -0.000587785 21.999
      vertex -40.4483 -29.3874 10
      vertex -7.72559 -23.775 10
    endloop
  endfacet
  facet normal -0.42195 0.221832 0.879062
    outer loop
      vertex -0.000809017 -0.000587785 21.999
      vertex -24.9987 -0.000588117 10
      vertex -40.4483 -29.3874 10
    endloop
  endfacet
  facet normal 0.951057 -0.309017 0
    outer loop
      vertex -0.000809017 -0.000587785 21.999
      vertex -7.72559 -23.775 10
      vertex -0.000809017 -0.000587785 10
    endloop
  endfacet
  facet normal -1.32511e-08 1 0
    outer loop
      vertex -0.000809017 -0.000587785 21.999
      vertex -0.000809017 -0.000587785 10
      vertex -24.9987 -0.000588117 10
    endloop
  endfacet
  facet normal -1.32511e-08 -1 0
    outer loop
      vertex -0.000809017 0.000587785 21.999
      vertex -24.9987 0.000588117 10
      vertex -0.000809017 0.000587785 10
    endloop
  endfacet
  facet normal -0.42195 -0.221832 0.879062
    outer loop
      vertex -0.000809017 0.000587785 21.999
      vertex -40.4483 29.3874 10
      vertex -24.9987 0.000588117 10
    endloop
  endfacet
  facet normal 0.951057 0.309017 -0
    outer loop
      vertex -0.000809017 0.000587785 21.999
      vertex -0.000809017 0.000587785 10
      vertex -7.72559 23.775 10
    endloop
  endfacet
  facet normal 0.0805852 0.469848 0.879062
    outer loop
      vertex -0.000809017 0.000587785 21.999
      vertex -7.72559 23.775 10
      vertex -40.4483 29.3874 10
    endloop
  endfacet
  facet normal -0.951057 0.309017 0
    outer loop
      vertex 0.000309017 -0.000951057 21.999
      vertex 0.000309017 -0.000951057 10
      vertex -7.72447 -23.7754 10
    endloop
  endfacet
  facet normal -0.341364 -0.332748 0.879062
    outer loop
      vertex 15.4499 -47.5498 10
      vertex 0.000309017 -0.000951057 21.999
      vertex -7.72447 -23.7754 10
    endloop
  endfacet
  facet normal 0.471754 -0.0685499 0.879062
    outer loop
      vertex 20.224 -14.6944 10
      vertex 0.000309017 -0.000951057 21.999
      vertex 15.4499 -47.5498 10
    endloop
  endfacet
  facet normal 0.587785 0.809017 0
    outer loop
      vertex 20.224 -14.6944 10
      vertex 0.000309017 -0.000951057 10
      vertex 0.000309017 -0.000951057 21.999
    endloop
  endfacet
  facet normal 0.587785 -0.809017 0
    outer loop
      vertex 20.224 14.6944 10
      vertex 0.000309017 0.000951057 21.999
      vertex 0.000309017 0.000951057 10
    endloop
  endfacet
  facet normal -0.951057 -0.309017 0
    outer loop
      vertex 0.000309017 0.000951057 21.999
      vertex -7.72447 23.7754 10
      vertex 0.000309017 0.000951057 10
    endloop
  endfacet
  facet normal 0.471754 0.0685499 0.879062
    outer loop
      vertex 20.224 14.6944 10
      vertex 15.4499 47.5498 10
      vertex 0.000309017 0.000951057 21.999
    endloop
  endfacet
  facet normal -0.341364 0.332748 0.879062
    outer loop
      vertex 15.4499 47.5498 10
      vertex -7.72447 23.7754 10
      vertex 0.000309017 0.000951057 21.999
    endloop
  endfacet
  facet normal -0.587785 -0.809017 0
    outer loop
      vertex 20.2247 -14.6934 10
      vertex 0.001 -2.44921e-19 21.999
      vertex 0.001 -2.44921e-19 10
    endloop
  endfacet
  facet normal 0.210975 -0.427482 0.879062
    outer loop
      vertex 20.2247 -14.6934 10
      vertex 49.9968 -1.22453e-14 10
      vertex 0.001 -2.44921e-19 21.999
    endloop
  endfacet
  facet normal 0.210975 0.427482 0.879062
    outer loop
      vertex 20.2247 14.6934 10
      vertex 0.001 -2.44921e-19 21.999
      vertex 49.9968 -1.22453e-14 10
    endloop
  endfacet
  facet normal -0.587785 0.809017 0
    outer loop
      vertex 20.2247 14.6934 10
      vertex 0.001 -2.44921e-19 10
      vertex 0.001 -2.44921e-19 21.999
    endloop
  endfacet
  facet normal 0.169052 0.985607 0
    outer loop
      vertex -40.451 29.389 0
      vertex -40.451 29.389 9.999
      vertex -7.726 23.776 0
    endloop
  endfacet
  facet normal 0.169052 0.985607 0
    outer loop
      vertex -7.726 23.776 0
      vertex -40.451 29.389 9.999
      vertex -7.726 23.776 9.999
    endloop
  endfacet
  facet normal 0 0 -1
    outer loop
      vertex -40.4517 29.3899 9.999
      vertex -7.72623 23.777 9.999
      vertex -40.451 29.389 9.999
    endloop
  endfacet
  facet normal 0 0 -1
    outer loop
      vertex -40.4517 29.3899 9.999
      vertex -40.451 29.389 9.999
      vertex -35.8575 20.6513 9.999
    endloop
  endfacet
  facet normal 0 0 -1
    outer loop
      vertex -40.451 29.389 9.999
      vertex -7.72623 23.777 9.999
      vertex -7.72593 23.7761 9.999
    endloop
  endfacet
  facet normal 0 0 -1
    outer loop
      vertex -40.451 29.389 9.999
      vertex -7.72593 23.7761 9.999
      vertex -7.726 23.776 9.999
    endloop
  endfacet
  facet normal -0.42195 -0.221832 0.879062
    outer loop
      vertex -40.451 29.389 9.9991
      vertex -40.4517 29.3899 9.999
      vertex -35.8575 20.6513 9.999
    endloop
  endfacet
  facet normal -0.42195 -0.221832 0.879062
    outer loop
      vertex -40.4503 29.3889 9.99939
      vertex -40.4517 29.3899 9.999
      vertex -40.451 29.389 9.9991
    endloop
  endfacet
  facet normal 0.0805852 0.469848 0.879062
    outer loop
      vertex -40.4503 29.3889 9.99939
      vertex -7.726 23.776 9.99951
      vertex -7.72593 23.7761 9.99947
    endloop
  endfacet
  facet normal 0.0805852 0.469848 0.879062
    outer loop
      vertex -40.4517 29.3899 9.999
      vertex -40.4503 29.3889 9.99939
      vertex -7.72623 23.777 9.999
    endloop
  endfacet
  facet normal 0.0805852 0.469848 0.879062
    outer loop
      vertex -7.72623 23.777 9.999
      vertex -40.4503 29.3889 9.99939
      vertex -7.72593 23.7761 9.99947
    endloop
  endfacet
  facet normal -0 0 -1
    outer loop
      vertex -7.72512 23.7774 9.999
      vertex 15.4512 47.5538 9.999
      vertex -7.725 23.777 9.999
    endloop
  endfacet
  facet normal -0 0 -1
    outer loop
      vertex 15.451 47.553 9.999
      vertex 15.4512 47.5538 9.999
      vertex 18.312 27.8658 9.999
    endloop
  endfacet
  facet normal 0 0 -1
    outer loop
      vertex -7.725 23.777 9.999
      vertex 15.4512 47.5538 9.999
      vertex 15.451 47.553 9.999
    endloop
  endfacet
  facet normal -0.951057 -0.309017 0
    outer loop
      vertex -7.725 23.777 9.99917
      vertex -7.72512 23.7774 9.999
      vertex -7.725 23.777 9.999
    endloop
  endfacet
  facet normal -0.341364 0.332748 0.879062
    outer loop
      vertex 15.4512 47.5538 9.999
      vertex -7.72512 23.7774 9.999
      vertex -7.725 23.777 9.99917
    endloop
  endfacet
  facet normal -0.341364 0.332748 0.879062
    outer loop
      vertex 15.4509 47.5529 9.99923
      vertex 15.4512 47.5538 9.999
      vertex -7.725 23.777 9.99917
    endloop
  endfacet
  facet normal 0.471754 0.0685499 0.879062
    outer loop
      vertex 15.451 47.553 9.99915
      vertex 18.312 27.8658 9.999
      vertex 15.4512 47.5538 9.999
    endloop
  endfacet
  facet normal 0.471754 0.0685499 0.879062
    outer loop
      vertex 15.4509 47.5529 9.99923
      vertex 15.451 47.553 9.99915
      vertex 15.4512 47.5538 9.999
    endloop
  endfacet
  facet normal 0.951057 0.309017 -0
    outer loop
      vertex -7.72593 23.7761 9.99947
      vertex -7.72593 23.7761 9.999
      vertex -7.72623 23.777 9.999
    endloop
  endfacet
  facet normal 0 0 -1
    outer loop
      vertex 27.4896 -11.1101 9.999
      vertex 50 0 9.999
      vertex 50.001 -1.22463e-14 9.999
    endloop
  endfacet
  facet normal 0 0 -1
    outer loop
      vertex 50.001 -1.22463e-14 9.999
      vertex 50 0 9.999
      vertex 27.4896 11.1101 9.999
    endloop
  endfacet
  facet normal 0.210975 0.427482 0.879062
    outer loop
      vertex 50.001 -1.22463e-14 9.999
      vertex 27.4896 11.1101 9.999
      vertex 50 0 9.99924
    endloop
  endfacet
  facet normal 2.93906e-12 5.61329e-12 1.22461e-11
    outer loop
      vertex 50 -1.22461e-14 9.99924
      vertex 50.001 -1.22463e-14 9.999
      vertex 50 0 9.99924
    endloop
  endfacet
  facet normal 0.210975 -0.427482 0.879062
    outer loop
      vertex 50.001 -1.22463e-14 9.999
      vertex 50 -1.22461e-14 9.99924
      vertex 27.4896 -11.1101 9.999
    endloop
  endfacet
endsolid OpenSCAD_Model
